<?xml version="1.0" encoding="UTF-8"?><svg id="a" xmlns="http://www.w3.org/2000/svg" width="456" height="25" viewBox="0 0 456 25"><path d="m236.72,5c1.28,0,2.3-.99,2.3-2.27s-1.02-2.27-2.3-2.27-2.3,1.02-2.3,2.27.99,2.27,2.3,2.27"/><rect x="234.94" y="7.69" width="3.49" height="16.58"/><path d="m228.02,24.28v-10.82c0-2.73-1.25-3.82-3.29-3.82-1.28,0-2.47.56-3.45,1.41v13.23h-3.49v-10.82c0-2.73-1.68-3.82-3.88-3.82-1.22,0-2.17.3-2.9.86v13.79h-3.49v-15.6c1.65-1.32,4.28-1.97,6.75-1.97,2.3,0,4.21.63,5.46,1.91,1.74-1.22,3.72-1.91,5.76-1.91,3.82,0,6.02,2.01,6.02,6.09v11.48h-3.49Z"/><path d="m200.46.95v6.32c-1.28-.36-2.5-.56-3.62-.56-4.87,0-8.09,3.32-8.09,9.15s3.78,9.15,9.01,9.15c1.91,0,4.01-.43,6.19-1.25V.03l-3.49.92Zm.03,20.63c-.95.26-1.84.39-2.63.39-3.36,0-5.36-2.3-5.36-6.12,0-4.15,1.78-6.19,4.87-6.19.92,0,1.97.2,3.13.56v11.35Z"/><path d="m174.16,17.2h12.01c.16-6.88-2.3-10.5-7.53-10.5-4.8,0-8.26,3.06-8.26,9.02,0,6.38,3.52,9.28,8.85,9.28,2.17,0,4.41-.59,6.19-1.48v-2.86c-2.4.95-3.88,1.32-6.15,1.32-2.86,0-5.1-1.61-5.1-4.77Zm4.47-7.6c2.9,0,4.28,2.07,4.28,4.87h-8.75c0-2.99,1.84-4.87,4.47-4.87Z"/><path d="m163.7,13.58c2.8-1.18,4.54-3.55,4.54-6.55,0-3.85-2.86-6.58-7.3-6.58h-8.42v23.82h3.49v-10.17h4.11l4.71,10.17h4.11l-5.23-10.69Zm-3.82-2.37h-3.88V3.35h3.88c2.96,0,4.67,1.45,4.67,3.91s-1.71,3.95-4.67,3.95Z"/><path d="m255.15,24.3V4.65l-5,2.61v-3.87l5.78-2.97h2.94v23.88h-3.71Z"/><path d="m278.09,24.3h-3.74V2.65h1l-7.55,13.3h13.3v3.42h-17.65v-2.58L272.83.42h5.26v23.88Z"/><path d="m303.49,20.1c-.86,1.44-2.03,2.58-3.52,3.4-1.48.83-3.17,1.24-5.07,1.24-2.24,0-4.21-.52-5.91-1.55-1.7-1.03-3.02-2.49-3.95-4.37-.94-1.88-1.4-4.08-1.4-6.6s.47-4.6,1.4-6.45c.94-1.85,2.25-3.28,3.94-4.28,1.69-1,3.66-1.5,5.92-1.5,1.89,0,3.59.42,5.08,1.26,1.49.84,2.66,1.97,3.5,3.39l-2.94,2.03c-.65-1.01-1.48-1.8-2.5-2.36-1.02-.56-2.08-.84-3.18-.84-1.51,0-2.81.35-3.92,1.05-1.11.7-1.96,1.71-2.57,3.03-.6,1.32-.9,2.88-.9,4.66s.3,3.43.9,4.79c.6,1.37,1.46,2.42,2.58,3.15,1.12.73,2.42,1.1,3.9,1.1,1.1,0,2.15-.28,3.15-.86,1-.57,1.84-1.37,2.53-2.4l2.94,2.1Z"/></svg>