<?xml version="1.0" encoding="UTF-8"?><svg id="a" xmlns="http://www.w3.org/2000/svg" width="160.87mm" height="22.24mm" viewBox="0 0 456.01 63.04"><path d="m.2,40.24h2.96l4.48,6.56,4.48-6.56h2.96l-5.89,8.4,6.09,8.7h-3.01l-4.62-6.86-4.62,6.86H0l6.12-8.7L.23,40.24s-.03,0-.03,0Z"/><path d="m18.9,39.92c.87,0,1.49.6,1.49,1.47s-.62,1.47-1.49,1.47-1.49-.6-1.49-1.47.62-1.47,1.49-1.47Zm1.24,5v12.43h-2.49v-12.43h2.49Z"/><path d="m26.9,57.65c-2.29,0-3.9-1.49-3.9-3.61,0-2.56,2.41-4.35,5.92-4.35.6,0,1.19.02,1.79.07v-.85c0-1.37-1.09-2.34-2.64-2.34-1.27,0-2.64.37-4,1.14v-2.11c1.44-.67,2.88-.99,4.28-.99,2.86,0,4.75,1.81,4.75,4.38v8.35h-2.39v-1.14c-1.17.92-2.46,1.44-3.8,1.44h-.01Zm.75-1.96c1.04,0,2.11-.52,3.06-1.49v-2.83c-.55-.05-1.07-.07-1.64-.07-2.14,0-3.58.99-3.58,2.41,0,1.17.9,1.99,2.16,1.99h0Z"/><path d="m42.05,44.62c3.63,0,6.17,2.69,6.17,6.51s-2.54,6.51-6.17,6.51-6.17-2.69-6.17-6.51,2.54-6.51,6.17-6.51Zm0,10.94c2.11,0,3.61-1.81,3.61-4.43s-1.49-4.43-3.61-4.43-3.61,1.81-3.61,4.43,1.49,4.43,3.61,4.43Z"/><path d="m53.59,44.92v1.17c1.14-.99,2.41-1.47,3.68-1.47,1.54,0,2.81.67,3.53,1.89,1.27-1.24,2.71-1.89,4.2-1.89,2.41,0,4.05,1.74,4.05,4.23v8.5h-2.49v-8.13c0-1.42-.94-2.44-2.29-2.44-.97,0-2.01.52-2.96,1.52v9.05h-2.49v-8.13c0-1.42-.94-2.44-2.29-2.44-.97,0-2.01.52-2.96,1.52v9.05h-2.49v-12.43s2.51,0,2.51,0Z"/><path d="m73.98,39.92c.87,0,1.49.6,1.49,1.47s-.62,1.47-1.49,1.47-1.49-.6-1.49-1.47.62-1.47,1.49-1.47Zm1.24,5v12.43h-2.49v-12.43h2.49Z"/><path d="m95.71,40.24v2.09h-7.48v5.74h6.51v2.09h-6.51v7.19h-2.56v-17.11h10.05s0,0,0,0Z"/><path d="m100.88,57.65c-2.29,0-3.9-1.49-3.9-3.61,0-2.56,2.41-4.35,5.92-4.35.6,0,1.19.02,1.79.07v-.85c0-1.37-1.09-2.34-2.64-2.34-1.27,0-2.64.37-4,1.14v-2.11c1.44-.67,2.88-.99,4.28-.99,2.86,0,4.75,1.81,4.75,4.38v8.35h-2.39v-1.14c-1.17.92-2.46,1.44-3.8,1.44h0Zm.75-1.96c1.04,0,2.11-.52,3.06-1.49v-2.83c-.55-.05-1.07-.07-1.64-.07-2.14,0-3.58.99-3.58,2.41,0,1.17.9,1.99,2.16,1.99h0Z"/><path d="m113.24,44.92v1.24c1.17-.99,2.49-1.54,3.8-1.54,2.56,0,4.38,1.81,4.38,4.4v8.33h-2.51v-7.93c0-1.54-1.07-2.64-2.56-2.64-1.07,0-2.16.55-3.11,1.57v9h-2.49v-12.43h2.49,0Z"/><path d="m141.81,40.24v2.09h-7.48v5.74h6.51v2.09h-6.51v7.19h-2.56v-17.11h10.05-.01Z"/><path d="m149.23,44.62c3.13,0,5.25,2.54,5.25,6.14,0,.32,0,.65-.05.99h-8.65c.15,2.34,1.82,3.93,4.1,3.93,1.17,0,2.44-.42,3.68-1.19v2.19c-1.34.65-2.71.97-4.05.97-3.66,0-6.22-2.74-6.22-6.61s2.49-6.42,5.94-6.42Zm-.12,1.96c-1.82,0-3.18,1.42-3.33,3.51h6.27c-.07-2.06-1.24-3.51-2.93-3.51h-.01Z"/><path d="m160.42,55.66c1.32,0,2.29-.72,2.29-1.74,0-2.54-6.07-1.29-6.07-5.62,0-2.19,1.86-3.68,4.53-3.68,1.12,0,2.29.25,3.41.72v2.24c-1.07-.65-2.16-.97-3.23-.97-1.29,0-2.21.67-2.21,1.64,0,2.44,6.09,1.19,6.09,5.62,0,2.24-1.91,3.78-4.62,3.78-1.24,0-2.49-.3-3.7-.87v-2.29c1.17.77,2.36,1.17,3.53,1.17h-.02,0Z"/><path d="m175.39,44.92v2.01h-3.93v6.61c0,1.19.8,2.01,2.01,2.01.57,0,1.22-.22,1.91-.6v2.14c-.87.35-1.72.55-2.49.55-2.31,0-3.95-1.57-3.95-3.8v-6.91h-2.26v-2.01h2.26v-3.51h2.51v3.51h3.94Z"/><path d="m179.49,39.92c.87,0,1.49.6,1.49,1.47s-.62,1.47-1.49,1.47-1.49-.6-1.49-1.47.62-1.47,1.49-1.47Zm1.24,5v12.43h-2.49v-12.43h2.49Z"/><path d="m187.84,57.35l-4.92-12.43h2.56l3.41,9.03,3.41-9.03h2.56l-4.92,12.43h-2.1Z"/><path d="m200.08,57.65c-2.29,0-3.9-1.49-3.9-3.61,0-2.56,2.41-4.35,5.92-4.35.6,0,1.19.02,1.79.07v-.85c0-1.37-1.09-2.34-2.64-2.34-1.27,0-2.64.37-4,1.14v-2.11c1.44-.67,2.88-.99,4.28-.99,2.86,0,4.75,1.81,4.75,4.38v8.35h-2.39v-1.14c-1.17.92-2.46,1.44-3.8,1.44h0Zm.75-1.96c1.04,0,2.11-.52,3.06-1.49v-2.83c-.55-.05-1.07-.07-1.64-.07-2.14,0-3.58.99-3.58,2.41,0,1.17.9,1.99,2.16,1.99h0Z"/><path d="m212.44,39.47v17.88h-2.49v-17.88h2.49Z"/><path d="m226.84,55.59c2.14,0,3.61-1.17,3.61-2.83,0-3.98-8.63-2.11-8.63-8.01,0-2.83,2.39-4.8,5.87-4.8,1.47,0,3.01.32,4.5.97v2.44c-1.44-.9-2.91-1.34-4.3-1.34-2.09,0-3.51,1.09-3.51,2.69,0,3.88,8.63,2.04,8.63,8.01,0,2.93-2.46,4.95-5.97,4.95-1.64,0-3.31-.4-4.9-1.17v-2.49c1.54,1.02,3.16,1.59,4.7,1.59h0Z"/><path d="m238.57,44.92v.99c1.02-.85,2.19-1.29,3.36-1.29,3.31,0,5.59,2.69,5.59,6.51s-2.29,6.51-5.59,6.51c-1.17,0-2.34-.45-3.36-1.29v6.44h-2.49v-17.88h2.49Zm2.88,1.84c-.99,0-2.01.45-2.88,1.32v6.09c.87.9,1.89,1.34,2.88,1.34,2.06,0,3.51-1.79,3.51-4.38s-1.44-4.38-3.51-4.38h0Z"/><path d="m255.46,44.62c3.13,0,5.25,2.54,5.25,6.14,0,.32,0,.65-.05.99h-8.65c.15,2.34,1.81,3.93,4.1,3.93,1.17,0,2.44-.42,3.68-1.19v2.19c-1.34.65-2.71.97-4.05.97-3.65,0-6.22-2.74-6.22-6.61s2.49-6.42,5.94-6.42h0Zm-.12,1.96c-1.82,0-3.18,1.42-3.33,3.51h6.27c-.07-2.06-1.24-3.51-2.93-3.51h-.01Z"/><path d="m268.79,44.62c1.22,0,2.46.3,3.63.87v2.29c-1.07-.72-2.19-1.07-3.23-1.07-2.36,0-4.05,1.81-4.05,4.43s1.69,4.43,4.05,4.43c1.04,0,2.16-.35,3.23-1.07v2.29c-1.17.57-2.41.87-3.63.87-3.66,0-6.22-2.71-6.22-6.51s2.56-6.51,6.22-6.51v-.02Z"/><path d="m276.65,39.92c.87,0,1.49.6,1.49,1.47s-.62,1.47-1.49,1.47-1.49-.6-1.49-1.47.62-1.47,1.49-1.47Zm1.24,5v12.43h-2.49v-12.43h2.49Z"/><path d="m284.65,57.65c-2.29,0-3.9-1.49-3.9-3.61,0-2.56,2.41-4.35,5.92-4.35.6,0,1.19.02,1.79.07v-.85c0-1.37-1.09-2.34-2.64-2.34-1.27,0-2.64.37-4,1.14v-2.11c1.44-.67,2.88-.99,4.28-.99,2.86,0,4.75,1.81,4.75,4.38v8.35h-2.39v-1.14c-1.17.92-2.46,1.44-3.8,1.44h-.01Zm.75-1.96c1.04,0,2.11-.52,3.06-1.49v-2.83c-.55-.05-1.07-.07-1.64-.07-2.14,0-3.58.99-3.58,2.41,0,1.17.9,1.99,2.16,1.99h0Z"/><path d="m297.01,39.47v17.88h-2.49v-17.88h2.49Z"/><path d="m317.5,40.24v2.09h-7.48v5.3h6.51v2.06h-6.51v5.57h7.68v2.09h-10.24v-17.11h10.05,0Z"/><path d="m328.52,57.35v-.99c-1.02.85-2.19,1.29-3.36,1.29-3.28,0-5.59-2.69-5.59-6.51s2.31-6.51,5.59-6.51c1.17,0,2.34.45,3.36,1.29v-6.44h2.51v17.88h-2.51Zm-2.88-1.84c1.02,0,2.01-.45,2.88-1.34v-6.09c-.87-.87-1.86-1.32-2.88-1.32-2.06,0-3.51,1.79-3.51,4.38s1.44,4.38,3.51,4.38h0Z"/><path d="m336.03,39.92c.87,0,1.49.6,1.49,1.47s-.62,1.47-1.49,1.47-1.49-.6-1.49-1.47.62-1.47,1.49-1.47Zm1.24,5v12.43h-2.49v-12.43h2.49Z"/><path d="m348.34,44.92v2.01h-3.93v6.61c0,1.19.8,2.01,2.01,2.01.57,0,1.22-.22,1.91-.6v2.14c-.87.35-1.72.55-2.49.55-2.31,0-3.95-1.57-3.95-3.8v-6.91h-2.26v-2.01h2.26v-3.51h2.51v3.51h3.94,0Z"/><path d="m352.44,39.92c.87,0,1.49.6,1.49,1.47s-.62,1.47-1.49,1.47-1.49-.6-1.49-1.47.62-1.47,1.49-1.47Zm1.24,5v12.43h-2.49v-12.43h2.49Z"/><path d="m362.71,44.62c3.63,0,6.17,2.69,6.17,6.51s-2.54,6.51-6.17,6.51-6.17-2.69-6.17-6.51,2.54-6.51,6.17-6.51Zm0,10.94c2.11,0,3.61-1.81,3.61-4.43s-1.49-4.43-3.61-4.43-3.61,1.81-3.61,4.43,1.49,4.43,3.61,4.43Z"/><path d="m374.25,44.92v1.24c1.17-.99,2.49-1.54,3.8-1.54,2.56,0,4.38,1.81,4.38,4.4v8.33h-2.51v-7.93c0-1.54-1.07-2.64-2.56-2.64-1.07,0-2.16.55-3.11,1.57v9h-2.49v-12.43h2.49Z"/><polygon points="104.73 17.71 93.33 1.62 93.32 1.6 90.43 1.6 90.43 23.08 93.56 23.08 93.56 6.97 104.96 23.06 104.97 23.08 107.86 23.08 107.86 1.6 104.73 1.6 104.73 17.71"/><path d="m119.73,7.07c-4.57,0-7.75,3.37-7.75,8.19s3.19,8.19,7.75,8.19,7.76-3.37,7.76-8.19-3.19-8.19-7.76-8.19h0Zm4.47,8.19c0,3.23-1.84,5.49-4.47,5.49s-4.47-2.26-4.47-5.49,1.84-5.49,4.47-5.49,4.47,2.26,4.47,5.49Z"/><path d="m135.07,3.06h-3.23v4.39h-2.83v2.6h2.83v8.6c0,2.83,2.05,4.8,4.99,4.8.93,0,1.99-.23,3.13-.69h.03v-2.78l-.06.03c-.93.5-1.71.74-2.38.74-1.48,0-2.48-1-2.48-2.48v-8.23h4.91v-2.6h-4.91V3.06h0Z"/><path d="m154.37,9.24c-1.2-1.42-2.86-2.16-4.78-2.16-2.11,0-4.01.8-5.37,2.26s-2.11,3.52-2.11,5.8c0,4.9,3.21,8.31,7.82,8.31,1.7,0,3.41-.41,5.09-1.22h.02v-2.85l-.06.04c-1.57.97-3.15,1.49-4.58,1.49-2.84,0-4.88-1.94-5.09-4.83h10.81v-.04c.07-.44.07-.85.07-1.25,0-2.23-.63-4.15-1.82-5.56h0Zm-4.94.38c2.06,0,3.52,1.73,3.63,4.3h-7.75c.2-2.54,1.89-4.3,4.12-4.3Z"/><path d="m75.93,5.69c1.16,0,2.08-.89,2.08-2.05s-.92-2.05-2.08-2.05-2.08.92-2.08,2.05.89,2.05,2.08,2.05"/><rect x="74.33" y="8.12" width="3.14" height="14.95"/><path d="m68.09,23.08v-9.76c0-2.46-1.13-3.44-2.97-3.44-1.16,0-2.22.5-3.12,1.28v11.93h-3.14v-9.76c0-2.46-1.51-3.44-3.5-3.44-1.1,0-1.96.27-2.61.77v12.43h-3.14v-14.06c1.48-1.19,3.86-1.78,6.08-1.78,2.08,0,3.8.56,4.92,1.72,1.57-1.1,3.35-1.72,5.19-1.72,3.44,0,5.43,1.81,5.43,5.49v10.35h-3.14,0Z"/><path d="m43.24,2.04v5.7c-1.16-.33-2.25-.5-3.26-.5-4.39,0-7.3,3-7.3,8.25s3.41,8.25,8.13,8.25c1.72,0,3.62-.39,5.58-1.13V1.21l-3.14.83s-.01,0,0,0Zm.03,18.6c-.86.24-1.66.36-2.37.36-3.03,0-4.84-2.08-4.84-5.52,0-3.74,1.6-5.58,4.39-5.58.83,0,1.78.18,2.82.5v10.24h0Z"/><path d="m19.53,16.7h10.83c.15-6.2-2.08-9.46-6.79-9.46-4.33,0-7.45,2.76-7.45,8.13,0,5.76,3.17,8.37,7.98,8.37,1.96,0,3.98-.53,5.58-1.34v-2.58c-2.17.86-3.5,1.19-5.55,1.19-2.58,0-4.6-1.45-4.6-4.3h0Zm4.03-6.85c2.61,0,3.86,1.87,3.86,4.39h-7.89c0-2.7,1.66-4.39,4.03-4.39Z"/><path d="m10.09,13.43c2.52-1.07,4.09-3.2,4.09-5.9,0-3.47-2.58-5.93-6.59-5.93H0v21.48h3.14v-9.17h3.71l4.24,9.17h3.71l-4.72-9.64h0Zm-3.44-2.14h-3.5v-7.09h3.5c2.67,0,4.21,1.31,4.21,3.53s-1.54,3.56-4.21,3.56Z"/><path d="m325.11,3.57c-.72-1.6-1.93-2.71-3.5-3.22-1.25-.41-3.04-.44-5.09-.44h-25.43c-2.05,0-3.85.03-5.09.44-1.57.51-2.78,1.62-3.5,3.22-.61,1.36-.66,3.13-.66,5.3v6.93c0,2.17.05,3.94.66,5.3.72,1.6,1.93,2.71,3.5,3.22,1.25.41,3.05.44,5.09.44h25.43c2.05,0,3.84-.03,5.09-.44,1.57-.51,2.78-1.62,3.5-3.22.61-1.36.66-3.13.66-5.3v-6.93c0-2.17-.05-3.94-.66-5.3Zm-1.02,4.98v7.58c0,1.89-.08,3.31-.44,4.14-.53,1.21-1.44,2.07-2.56,2.43-1,.32-2.06.38-4.54.38h-25.47c-2.49,0-3.55-.06-4.54-.38-1.12-.36-2.03-1.22-2.56-2.43-.37-.83-.44-2.25-.44-4.14v-7.58c0-1.89.08-3.31.44-4.14.53-1.21,1.45-2.07,2.56-2.43,1-.32,2.06-.38,4.54-.38h25.47c2.49,0,3.55.06,4.55.38,1.12.36,2.03,1.23,2.56,2.43.37.83.44,2.25.44,4.14h0Z"/><path d="m294.26,6.76v3.99c.56-.11,1.08-.15,1.62-.15,2.86,0,4.81,1.86,4.81,4.59s-2.21,4.85-5.37,4.85c-1.15,0-2.34-.28-3.47-.84v-2.14c1.1.74,2.21,1.1,3.27,1.1,1.95,0,3.31-1.23,3.31-2.97s-1.32-2.9-3.27-2.9c-.95,0-1.93.13-2.88.41v-7.82h7.67v1.88h-5.7s.01,0,.01,0Z"/><path d="m310.74,20.04c-4.31,0-7.36-3.21-7.36-7.71s3.03-7.71,7.32-7.71c1.52,0,3.01.41,4.46,1.19v2.12c-1.41-.95-2.82-1.47-4.18-1.47-3.14,0-5.35,2.43-5.35,5.87s2.17,5.87,5.24,5.87c.91,0,1.84-.24,2.75-.63v-3.92h-3.4v-1.69h5.52v6.84c-1.65.8-3.34,1.23-5,1.23h0Z"/><path d="m260.87,14.22v-6.07h1.94v6.07h6.07v1.94h-6.07v6.07h-1.94v-6.07h-6.07v-1.94s6.07,0,6.07,0Z"/><path d="m215.3,1.59c4.22,0,7.24,2.72,7.24,6.62s-3.03,6.62-7.24,6.62h-4.15v8.24h-2.5V1.59h6.65Zm-.37,11.21c2.97,0,5.03-1.84,5.03-4.59s-2.06-4.59-5.03-4.59h-3.78v9.18h3.78Z"/><path d="m228.76,7.46v1.87c1.22-1.44,2.78-2.25,4.31-2.25.5,0,1,.06,1.53.22v2.25c-.53-.16-1.09-.25-1.65-.25-1.47,0-3,.84-4.18,2.44v11.33h-2.47V7.46h2.47-.01Z"/><path d="m243.9,7.09c4.4,0,7.53,3.37,7.53,8.18s-3.12,8.18-7.53,8.18-7.53-3.37-7.53-8.18,3.09-8.18,7.53-8.18Zm0,14.3c2.9,0,4.96-2.53,4.96-6.12s-2.06-6.12-4.96-6.12-5,2.53-5,6.12,2.06,6.12,5,6.12Z"/><path d="m166.45,8.16v-2.93l6.43-3.62h2.19v21.48h-3.22V5.07l-5.4,3.09Z" style="fill:#e50012;"/><path d="m187.52,10.91c2.62,0,4.47-1.5,4.47-3.65,0-1.97-1.59-3.37-3.87-3.37-1.59,0-3.28.56-4.93,1.56v-2.94c1.75-.84,3.53-1.28,5.28-1.28,4,0,6.74,2.34,6.74,5.75,0,2.31-1.37,4.28-3.59,5.03,2.5.84,4.09,2.93,4.09,5.5,0,3.5-3.03,5.96-7.43,5.96-1.84,0-3.75-.47-5.59-1.41v-3c1.72,1.16,3.53,1.75,5.21,1.75,2.65,0,4.53-1.5,4.53-3.59,0-2.25-1.94-3.78-4.71-3.78h-1.22v-2.53h1.03-.01Z" style="fill:#e50012;"/></svg>