<?xml version="1.0" encoding="UTF-8"?><svg id="a" xmlns="http://www.w3.org/2000/svg" width="160.87mm" height="8.82mm" viewBox="0 0 456.01 25"><polygon points="204.7 18.32 192.04 .45 192.03 .43 188.81 .43 188.81 24.28 192.29 24.28 192.29 6.39 204.95 24.26 204.96 24.28 208.18 24.28 208.18 .43 204.7 .43 204.7 18.32"/><path d="m221.35,6.51c-5.07,0-8.61,3.74-8.61,9.09s3.54,9.09,8.61,9.09,8.61-3.74,8.61-9.09-3.54-9.09-8.61-9.09Zm4.96,9.09c0,3.59-2.04,6.1-4.96,6.1s-4.96-2.51-4.96-6.1,2.04-6.1,4.96-6.1,4.96,2.51,4.96,6.1Z"/><path d="m238.39,2.05h-3.58v4.87h-3.14v2.89h3.14v9.55c0,3.14,2.28,5.33,5.54,5.33,1.04,0,2.21-.26,3.47-.76h.03v-3.09l-.07.04c-1.03.55-1.9.82-2.64.82-1.65,0-2.75-1.11-2.75-2.75v-9.14h5.46v-2.89h-5.46V2.05Z"/><path d="m259.82,8.91c-1.33-1.57-3.17-2.4-5.31-2.4-2.34,0-4.45.89-5.96,2.51-1.51,1.62-2.34,3.91-2.34,6.44,0,5.44,3.57,9.23,8.68,9.23,1.89,0,3.79-.45,5.65-1.35h.03v-3.16l-.07.04c-1.74,1.08-3.5,1.65-5.09,1.65-3.16,0-5.42-2.15-5.65-5.36h12.01v-.04c.07-.49.07-.94.07-1.39,0-2.48-.7-4.61-2.02-6.17h0Zm-5.48.42c2.29,0,3.91,1.92,4.03,4.78h-8.6c.22-2.81,2.1-4.78,4.58-4.78h0Z"/><path d="m172.72,4.97c1.28,0,2.31-.99,2.31-2.27s-1.02-2.27-2.31-2.27-2.31,1.02-2.31,2.27.99,2.27,2.31,2.27"/><rect x="170.94" y="7.67" width="3.49" height="16.6"/><path d="m164.02,24.28v-10.84c0-2.73-1.25-3.82-3.29-3.82-1.28,0-2.47.56-3.46,1.42v13.24h-3.49v-10.84c0-2.73-1.68-3.82-3.89-3.82-1.22,0-2.17.3-2.9.86v13.8h-3.49v-15.61c1.65-1.32,4.28-1.98,6.75-1.98,2.31,0,4.22.63,5.47,1.91,1.75-1.22,3.72-1.91,5.76-1.91,3.82,0,6.03,2.01,6.03,6.09v11.5h-3.49,0Z"/><path d="m136.43.92v6.32c-1.28-.36-2.5-.56-3.62-.56-4.87,0-8.1,3.33-8.1,9.16s3.79,9.16,9.02,9.16c1.91,0,4.02-.43,6.19-1.25V0l-3.49.92Zm.03,20.65c-.96.26-1.84.4-2.64.4-3.36,0-5.37-2.31-5.37-6.13,0-4.15,1.78-6.19,4.87-6.19.92,0,1.98.2,3.13.56v11.36h0Z"/><path d="m110.1,17.19h12.02c.16-6.88-2.31-10.51-7.54-10.51-4.81,0-8.27,3.06-8.27,9.03,0,6.39,3.52,9.29,8.86,9.29,2.17,0,4.41-.59,6.19-1.48v-2.87c-2.4.96-3.89,1.32-6.16,1.32-2.87,0-5.11-1.61-5.11-4.78h0Zm4.48-7.61c2.9,0,4.28,2.08,4.28,4.87h-8.76c0-3,1.84-4.87,4.48-4.87Z"/><path d="m99.62,13.57c2.8-1.19,4.55-3.56,4.55-6.55,0-3.85-2.87-6.59-7.31-6.59h-8.43v23.85h3.49v-10.18h4.12l4.71,10.18h4.12l-5.24-10.7h-.01Zm-3.82-2.37h-3.89V3.33h3.89c2.96,0,4.68,1.45,4.68,3.92s-1.71,3.95-4.68,3.95Z"/><path d="m327.47.42c4.68,0,8.04,3.02,8.04,7.35s-3.36,7.35-8.04,7.35h-4.61v9.15h-2.77V.42h7.38,0Zm-.42,12.45c3.29,0,5.58-2.05,5.58-5.1s-2.29-5.1-5.58-5.1h-4.19v10.19h4.19Z"/><path d="m342.41,6.94v2.08c1.35-1.59,3.09-2.5,4.78-2.5.55,0,1.11.07,1.7.24v2.5c-.59-.17-1.21-.28-1.84-.28-1.63,0-3.33.94-4.65,2.7v12.58h-2.74V6.94h2.75Z"/><path d="m359.22,6.52c4.89,0,8.36,3.74,8.36,9.08s-3.47,9.08-8.36,9.08-8.36-3.74-8.36-9.08,3.43-9.08,8.36-9.08Zm0,15.88c3.22,0,5.51-2.81,5.51-6.8s-2.29-6.8-5.51-6.8-5.55,2.81-5.55,6.8,2.29,6.8,5.55,6.8Z"/><path d="m273.23,7.72v-3.26l7.14-4.02h2.43v23.85h-3.57V4.28l-6,3.43h0Z" style="fill:#e50012;"/><path d="m296.63,10.77c2.91,0,4.96-1.66,4.96-4.06,0-2.18-1.77-3.74-4.3-3.74-1.77,0-3.64.62-5.48,1.73V1.44c1.94-.94,3.92-1.42,5.86-1.42,4.44,0,7.49,2.6,7.49,6.38,0,2.57-1.53,4.75-3.99,5.58,2.77.94,4.54,3.26,4.54,6.1,0,3.88-3.36,6.62-8.25,6.62-2.05,0-4.16-.52-6.21-1.56v-3.33c1.91,1.28,3.92,1.94,5.79,1.94,2.95,0,5.03-1.66,5.03-3.99,0-2.5-2.15-4.19-5.23-4.19h-1.35v-2.81h1.14Z" style="fill:#e50012;"/></svg>