<?xml version="1.0" encoding="UTF-8"?><svg id="a" xmlns="http://www.w3.org/2000/svg" width="456" height="25" viewBox="0 0 456 25"><polygon points="235.61 18.29 223.08 .45 222.94 .45 219.75 .45 219.75 24.23 223.27 24.23 223.27 6.39 235.83 24.23 235.94 24.23 239.15 24.23 239.15 .45 235.61 .45 235.61 18.29"/><path d="m252.24,6.5c-5.06,0-8.59,3.75-8.59,9.03s3.52,9.03,8.59,9.03,8.59-3.75,8.59-9.03-3.52-9.03-8.59-9.03h0Zm4.95,9.03c0,3.63-1.98,6.06-4.95,6.06s-4.95-2.54-4.95-6.06,1.98-6.06,4.95-6.06,4.95,2.54,4.95,6.06Z"/><path d="m269.21,2.1h-3.52v4.84h-3.08v2.86h3.08v9.59c0,3.08,2.32,5.29,5.51,5.29.99,0,2.21-.22,3.41-.78h0v-3.08h-.11c-.99.55-1.87.78-2.65.78-1.65,0-2.75-1.1-2.75-2.75v-9.14h5.4v-2.75h-5.4V2.1h.11,0Z"/><path d="m290.58,8.93c-1.32-1.54-3.19-2.43-5.29-2.43-2.32,0-4.41.89-5.95,2.54-1.54,1.65-2.32,3.86-2.32,6.38,0,5.4,3.52,9.25,8.7,9.25,1.87,0,3.75-.44,5.62-1.32h0v-3.19h-.11c-1.76,1.1-3.52,1.65-5.06,1.65-3.19,0-5.4-2.09-5.62-5.4h12c.11-.44.11-.99.11-1.43,0-2.43-.78-4.51-2.09-6.06h.01Zm-5.4.44c2.32,0,3.86,1.87,3.97,4.73h-8.59c.22-2.86,2.09-4.73,4.62-4.73h0Z"/><path d="m203.77,4.96c1.32,0,2.32-.99,2.32-2.32,0-1.21-.99-2.32-2.32-2.32s-2.32.99-2.32,2.32.99,2.32,2.32,2.32"/><rect x="202.02" y="7.72" width="3.52" height="16.52"/><path d="m195.08,24.23v-10.79c0-2.75-1.21-3.86-3.3-3.86-1.32,0-2.43.55-3.41,1.43v13.22h-3.52v-10.79c0-2.75-1.65-3.86-3.86-3.86-1.21,0-2.21.33-2.86.89v13.76h-3.52v-15.53c1.65-1.32,4.3-1.98,6.72-1.98s4.19.66,5.51,1.87c1.76-1.21,3.75-1.87,5.73-1.87,3.86,0,6.06,1.98,6.06,6.06v11.46h-3.55,0Z"/><path d="m167.55.99v6.27c-1.32-.33-2.54-.55-3.63-.55-4.84,0-8.03,3.3-8.03,9.14s3.75,9.14,9.03,9.14c1.87,0,3.97-.44,6.17-1.21V0l-3.52.99h-.02,0Zm0,20.59c-.99.22-1.87.44-2.65.44-3.3,0-5.4-2.32-5.4-6.06,0-4.19,1.76-6.17,4.84-6.17.89,0,1.98.22,3.08.55l.11,11.24h.02,0Z"/><path d="m141.22,17.18h12c.11-6.83-2.32-10.46-7.49-10.46-4.84,0-8.26,3.08-8.26,9.03,0,6.38,3.52,9.25,8.81,9.25,2.21,0,4.41-.55,6.17-1.43v-2.97c-2.43.99-3.86,1.32-6.17,1.32-2.75,0-5.06-1.54-5.06-4.73h0Zm4.51-7.6c2.86,0,4.3,2.09,4.3,4.84h-8.7c-.11-2.97,1.76-4.84,4.41-4.84h-.01Z"/><path d="m130.87,13.55c2.75-1.21,4.51-3.52,4.51-6.49,0-3.86-2.86-6.61-7.27-6.61h-8.48v23.79h3.52v-10.13h4.08l4.73,10.13h4.08l-5.18-10.68h0Zm-3.86-2.32h-3.86V3.31h3.86c2.97,0,4.62,1.43,4.62,3.86s-1.65,4.08-4.62,4.08h0s0-.02,0-.02Z"/><path d="m304.02,7.72v-3.3l7.16-3.97h2.43v23.79h-3.52V4.31l-6.06,3.41s-.01,0-.01,0Z" style="fill:#e50012;"/><path d="m327.36,10.8c2.86,0,4.95-1.65,4.95-4.08,0-2.21-1.76-3.75-4.3-3.75-1.76,0-3.63.66-5.51,1.76V1.43c1.98-.89,3.86-1.43,5.84-1.43,4.41,0,7.49,2.65,7.49,6.38,0,2.54-1.54,4.73-3.97,5.62,2.75.89,4.51,3.3,4.51,6.06,0,3.86-3.3,6.61-8.26,6.61-2.09,0-4.19-.55-6.17-1.54v-3.3c1.87,1.32,3.86,1.98,5.73,1.98,2.97,0,5.06-1.65,5.06-3.97,0-2.54-2.09-4.19-5.18-4.19h-1.32v-2.75l1.1-.11h.03Z" style="fill:#e50012;"/></svg>